<svg xmlns="http://www.w3.org/2000/svg" width="1800" height="2350" viewBox="0 0 1800 2350">
  <defs>
    <marker id="arrow" viewBox="0 0 10 10" refX="9" refY="5" markerWidth="10" markerHeight="10" orient="auto">
      <path d="M 0 0 L 10 5 L 0 10 z" fill="#111111"/>
    </marker>
    <style>
      text { font-family: Arial, "Noto Sans Thai", sans-serif; fill: #111111; }
      .lane { font-size: 24px; font-weight: 700; }
      .node { font-size: 22px; }
      .small { font-size: 20px; }
      .edge { font-size: 18px; }
    </style>
  </defs>
  <rect width="1800" height="2300" fill="#ffffff"/>
  <rect x="60" y="60" width="520" height="2240" fill="#ffffff" stroke="#111111" stroke-width="2"/>
  <rect x="580" y="60" width="620" height="2240" fill="#fafafa" stroke="#111111" stroke-width="2"/>
  <rect x="1200" y="60" width="540" height="2240" fill="#ffffff" stroke="#111111" stroke-width="2"/>
  <rect x="60" y="60" width="520" height="60" fill="#f3f4f6" stroke="#111111" stroke-width="2"/>
  <rect x="580" y="60" width="620" height="60" fill="#f3f4f6" stroke="#111111" stroke-width="2"/>
  <rect x="1200" y="60" width="540" height="60" fill="#f3f4f6" stroke="#111111" stroke-width="2"/>
  <text class="lane" x="320" y="99" text-anchor="middle">Staff</text>
  <text class="lane" x="890" y="99" text-anchor="middle">System</text>
  <text class="lane" x="1470" y="99" text-anchor="middle">Supervisor / Admin</text>

  <ellipse cx="320" cy="165" rx="110" ry="35" fill="#ffffff" stroke="#111111" stroke-width="2"/>
  <text class="node" x="320" y="173" text-anchor="middle" font-weight="700">เริ่มต้น</text>
  <rect x="160" y="250" width="320" height="80" rx="8" fill="#ffffff" stroke="#111111" stroke-width="2"/>
  <text class="node" x="320" y="298" text-anchor="middle">เข้าสู่ระบบ</text>
  <rect x="140" y="380" width="360" height="90" rx="8" fill="#ffffff" stroke="#111111" stroke-width="2"/>
  <text class="node" x="320" y="433" text-anchor="middle">เลือกห้องและช่วงงานที่กำลังตรวจ</text>
  <rect x="1305" y="265" width="330" height="80" rx="8" fill="#f7f7f7" stroke="#666666" stroke-width="1.5" stroke-dasharray="8 6"/>
  <text class="small" x="1470" y="296" text-anchor="middle" fill="#333333">จัดการแม่แบบและผู้ใช้</text>
  <text class="small" x="1470" y="325" text-anchor="middle" fill="#333333">(งานดูแลระบบเฉพาะเมื่อจำเป็น)</text>
  <rect x="730" y="380" width="340" height="90" rx="8" fill="#ffffff" stroke="#111111" stroke-width="2"/>
  <text class="node" x="900" y="433" text-anchor="middle">ตรวจสอบ checklist ที่ใช้งานอยู่</text>
  <polygon points="900,530 1050,610 900,690 750,610" fill="#ffffff" stroke="#111111" stroke-width="2"/>
  <text class="small" x="900" y="602" text-anchor="middle">มี checklist ที่พร้อมใช้งาน</text>
  <text class="small" x="900" y="630" text-anchor="middle">สำหรับห้อง/ช่วงงานนี้หรือไม่</text>
  <rect x="730" y="735" width="340" height="95" rx="8" fill="#ffffff" stroke="#111111" stroke-width="2"/>
  <text class="small" x="900" y="773" text-anchor="middle">แสดงสถานะพร้อมคำแนะนำ</text>
  <text class="small" x="900" y="806" text-anchor="middle">และกลับไปเลือกใหม่</text>
  <rect x="135" y="735" width="370" height="90" rx="8" fill="#ffffff" stroke="#111111" stroke-width="2"/>
  <text class="node" x="320" y="788" text-anchor="middle">เปิดหน้า checklist ของวัน</text>
  <rect x="710" y="890" width="380" height="100" rx="8" fill="#ffffff" stroke="#111111" stroke-width="2"/>
  <text class="small" x="900" y="930" text-anchor="middle">ตรวจสอบ checklist run</text>
  <text class="small" x="900" y="960" text-anchor="middle">ของห้อง + scope + วันที่</text>
  <polygon points="900,1045 1040,1120 900,1195 760,1120" fill="#ffffff" stroke="#111111" stroke-width="2"/>
  <text class="small" x="900" y="1114" text-anchor="middle">มี checklist run</text>
  <text class="small" x="900" y="1142" text-anchor="middle">ของวันนี้แล้วหรือไม่</text>
  <rect x="710" y="1260" width="380" height="90" rx="8" fill="#ffffff" stroke="#111111" stroke-width="2"/>
  <text class="node" x="900" y="1313" text-anchor="middle">สร้าง checklist run อัตโนมัติ</text>
  <rect x="150" y="1260" width="340" height="90" rx="8" fill="#ffffff" stroke="#111111" stroke-width="2"/>
  <text class="node" x="320" y="1313" text-anchor="middle">ทำรายการตรวจเช็ก</text>
  <polygon points="320,1420 445,1490 320,1560 195,1490" fill="#ffffff" stroke="#111111" stroke-width="2"/>
  <text class="small" x="320" y="1498" text-anchor="middle">พบเหตุผิดปกติหรือไม่</text>
  <rect x="100" y="1630" width="440" height="110" rx="8" fill="#ffffff" stroke="#111111" stroke-width="2"/>
  <text class="small" x="320" y="1672" text-anchor="middle">สร้าง incident</text>
  <text class="small" x="320" y="1705" text-anchor="middle">(ห้อง + หมวดหมู่ + ความรุนแรง + รายละเอียด</text>
  <text class="small" x="320" y="1732" text-anchor="middle">+ หลักฐานเมื่อมี)</text>
  <rect x="150" y="1810" width="340" height="90" rx="8" fill="#ffffff" stroke="#111111" stroke-width="2"/>
  <text class="node" x="320" y="1863" text-anchor="middle">ส่ง checklist</text>
  <rect x="735" y="1810" width="330" height="90" rx="8" fill="#ffffff" stroke="#111111" stroke-width="2"/>
  <text class="node" x="900" y="1863" text-anchor="middle">บันทึกข้อมูลลงระบบ</text>
  <rect x="1295" y="1810" width="350" height="90" rx="8" fill="#ffffff" stroke="#111111" stroke-width="2"/>
  <text class="small" x="1470" y="1848" text-anchor="middle">ติดตามผ่านแดชบอร์ด /</text>
  <text class="small" x="1470" y="1880" text-anchor="middle">รายการเหตุผิดปกติ</text>
  <rect x="1300" y="1965" width="340" height="85" rx="8" fill="#ffffff" stroke="#111111" stroke-width="2"/>
  <text class="node" x="1470" y="2016" text-anchor="middle">อัปเดตสถานะ incident</text>
  <rect x="1285" y="2110" width="370" height="85" rx="8" fill="#ffffff" stroke="#111111" stroke-width="2"/>
  <text class="node" x="1470" y="2161" text-anchor="middle">ทบทวนประวัติและเอกสารสรุป</text>
  <ellipse cx="1470" cy="2285" rx="115" ry="35" fill="#ffffff" stroke="#111111" stroke-width="2"/>
  <text class="node" x="1470" y="2293" text-anchor="middle" font-weight="700">สิ้นสุด</text>

  <g fill="none" stroke="#111111" stroke-width="2" marker-end="url(#arrow)">
    <line x1="320" y1="200" x2="320" y2="250"/>
    <line x1="320" y1="330" x2="320" y2="380"/>
    <line x1="500" y1="425" x2="730" y2="425"/>
    <line x1="900" y1="470" x2="900" y2="535"/>
    <line x1="760" y1="610" x2="505" y2="780"/>
    <line x1="900" y1="685" x2="900" y2="735"/>
    <path d="M730 782 L620 782 L620 520 L500 520"/>
    <line x1="505" y1="780" x2="710" y2="940"/>
    <line x1="900" y1="990" x2="900" y2="1045"/>
    <line x1="900" y1="1195" x2="900" y2="1260"/>
    <line x1="760" y1="1120" x2="490" y2="1305"/>
    <line x1="710" y1="1305" x2="490" y2="1305"/>
    <line x1="320" y1="1350" x2="320" y2="1420"/>
    <line x1="320" y1="1560" x2="320" y2="1630"/>
    <path d="M445 1490 L535 1490 L535 1855 L490 1855"/>
    <line x1="320" y1="1735" x2="320" y2="1810"/>
    <line x1="490" y1="1855" x2="735" y2="1855"/>
    <line x1="1065" y1="1855" x2="1295" y2="1855"/>
    <line x1="1470" y1="1900" x2="1470" y2="1965"/>
    <line x1="1470" y1="2050" x2="1470" y2="2110"/>
    <line x1="1470" y1="2195" x2="1470" y2="2250"/>
  </g>
  <line x1="1305" y1="305" x2="1070" y2="425" fill="none" stroke="#666666" stroke-width="1.5" stroke-dasharray="8 6" marker-end="url(#arrow)"/>
  <text class="edge" x="635" y="650" text-anchor="middle">ใช่</text>
  <text class="edge" x="940" y="725" text-anchor="middle">ไม่ใช่</text>
  <text class="edge" x="860" y="1235" text-anchor="middle">ไม่ใช่</text>
  <text class="edge" x="625" y="1160" text-anchor="middle">ใช่</text>
  <text class="edge" x="350" y="1610" text-anchor="middle">พบ</text>
  <text class="edge" x="500" y="1470" text-anchor="middle">ไม่พบ</text>
</svg>
